<?xml version="1.0" encoding="UTF-8"?>
<svg width="700pt" height="700pt" version="1.1" viewBox="0 0 700 700" xmlns="http://www.w3.org/2000/svg" xmlns:xlink="http://www.w3.org/1999/xlink">
 <defs>
  <symbol id="w" overflow="visible">
   <path d="m18.766-1.125c-0.96875 0.5-1.9805 0.875-3.0312 1.125-1.043 0.25781-2.1367 0.39062-3.2812 0.39062-3.3984 0-6.0898-0.94531-8.0781-2.8438-1.9922-1.9062-2.9844-4.4844-2.9844-7.7344 0-3.2578 0.99219-5.8359 2.9844-7.7344 1.9883-1.9062 4.6797-2.8594 8.0781-2.8594 1.1445 0 2.2383 0.13281 3.2812 0.39062 1.0508 0.25 2.0625 0.625 3.0312 1.125v4.2188c-0.98047-0.65625-1.9453-1.1406-2.8906-1.4531-0.94922-0.3125-1.9492-0.46875-3-0.46875-1.875 0-3.3516 0.60547-4.4219 1.8125-1.0742 1.1992-1.6094 2.8555-1.6094 4.9688 0 2.1055 0.53516 3.7617 1.6094 4.9688 1.0703 1.1992 2.5469 1.7969 4.4219 1.7969 1.0508 0 2.0508-0.14844 3-0.45312 0.94531-0.3125 1.9102-0.80078 2.8906-1.4688z"/>
  </symbol>
  <symbol id="d" overflow="visible">
   <path d="m13.734-11.141c-0.4375-0.19531-0.87109-0.34375-1.2969-0.4375-0.41797-0.10156-0.83984-0.15625-1.2656-0.15625-1.2617 0-2.2305 0.40625-2.9062 1.2188-0.67969 0.80469-1.0156 1.9531-1.0156 3.4531v7.0625h-4.8906v-15.312h4.8906v2.5156c0.625-1 1.3438-1.7266 2.1562-2.1875 0.82031-0.46875 1.8008-0.70312 2.9375-0.70312 0.16406 0 0.34375 0.011719 0.53125 0.03125 0.19531 0.011719 0.47656 0.039062 0.84375 0.078125z"/>
  </symbol>
  <symbol id="a" overflow="visible">
   <path d="m17.641-7.7031v1.4062h-11.453c0.125 1.1484 0.53906 2.0078 1.25 2.5781 0.70703 0.57422 1.7031 0.85938 2.9844 0.85938 1.0312 0 2.082-0.14844 3.1562-0.45312 1.082-0.3125 2.1914-0.77344 3.3281-1.3906v3.7656c-1.1562 0.4375-2.3125 0.76562-3.4688 0.98438-1.1562 0.22656-2.3125 0.34375-3.4688 0.34375-2.7734 0-4.9297-0.70312-6.4688-2.1094-1.5312-1.4062-2.2969-3.3789-2.2969-5.9219 0-2.5 0.75391-4.4609 2.2656-5.8906 1.5078-1.4375 3.582-2.1562 6.2188-2.1562 2.4062 0 4.332 0.73047 5.7812 2.1875 1.4453 1.4492 2.1719 3.3828 2.1719 5.7969zm-5.0312-1.625c0-0.92578-0.27344-1.6719-0.8125-2.2344-0.54297-0.57031-1.25-0.85938-2.125-0.85938-0.94922 0-1.7188 0.26562-2.3125 0.79688s-0.96484 1.2969-1.1094 2.2969z"/>
  </symbol>
  <symbol id="c" overflow="visible">
   <path d="m9.2188-6.8906c-1.0234 0-1.793 0.17188-2.3125 0.51562-0.51172 0.34375-0.76562 0.85547-0.76562 1.5312 0 0.625 0.20703 1.1172 0.625 1.4688 0.41406 0.34375 0.98828 0.51562 1.7188 0.51562 0.92578 0 1.7031-0.32812 2.3281-0.98438 0.63281-0.66406 0.95312-1.4922 0.95312-2.4844v-0.5625zm7.4688-1.8438v8.7344h-4.9219v-2.2656c-0.65625 0.92969-1.3984 1.6055-2.2188 2.0312-0.82422 0.41406-1.8242 0.625-3 0.625-1.5859 0-2.8711-0.45703-3.8594-1.375-0.99219-0.92578-1.4844-2.1289-1.4844-3.6094 0-1.7891 0.61328-3.1016 1.8438-3.9375 1.2383-0.84375 3.1797-1.2656 5.8281-1.2656h2.8906v-0.39062c0-0.76953-0.30859-1.332-0.92188-1.6875-0.61719-0.36328-1.5703-0.54688-2.8594-0.54688-1.0547 0-2.0312 0.10547-2.9375 0.3125-0.89844 0.21094-1.7305 0.52344-2.5 0.9375v-3.7344c1.0391-0.25 2.0859-0.44141 3.1406-0.57812 1.0625-0.13281 2.125-0.20312 3.1875-0.20312 2.7578 0 4.75 0.54688 5.9688 1.6406 1.2266 1.0859 1.8438 2.8555 1.8438 5.3125z"/>
  </symbol>
  <symbol id="b" overflow="visible">
   <path d="m7.7031-19.656v4.3438h5.0469v3.5h-5.0469v6.5c0 0.71094 0.14062 1.1875 0.42188 1.4375s0.83594 0.375 1.6719 0.375h2.5156v3.5h-4.1875c-1.9375 0-3.3125-0.39844-4.125-1.2031-0.80469-0.8125-1.2031-2.1797-1.2031-4.1094v-6.5h-2.4219v-3.5h2.4219v-4.3438z"/>
  </symbol>
  <symbol id="g" overflow="visible">
   <path d="m12.766-13.078v-8.2031h4.9219v21.281h-4.9219v-2.2188c-0.66797 0.90625-1.4062 1.5703-2.2188 1.9844s-1.7578 0.625-2.8281 0.625c-1.8867 0-3.4336-0.75-4.6406-2.25-1.2109-1.5-1.8125-3.4258-1.8125-5.7812 0-2.3633 0.60156-4.2969 1.8125-5.7969 1.207-1.5 2.7539-2.25 4.6406-2.25 1.0625 0 2 0.21484 2.8125 0.64062 0.82031 0.42969 1.5664 1.0859 2.2344 1.9688zm-3.2188 9.9219c1.0391 0 1.8359-0.37891 2.3906-1.1406 0.55078-0.76953 0.82812-1.8828 0.82812-3.3438 0-1.457-0.27734-2.5664-0.82812-3.3281-0.55469-0.76953-1.3516-1.1562-2.3906-1.1562-1.043 0-1.8398 0.38672-2.3906 1.1562-0.55469 0.76172-0.82812 1.8711-0.82812 3.3281 0 1.4609 0.27344 2.5742 0.82812 3.3438 0.55078 0.76172 1.3477 1.1406 2.3906 1.1406z"/>
  </symbol>
  <symbol id="f" overflow="visible">
   <path d="m10.5-3.1562c1.0508 0 1.8516-0.37891 2.4062-1.1406 0.55078-0.76953 0.82812-1.8828 0.82812-3.3438 0-1.457-0.27734-2.5664-0.82812-3.3281-0.55469-0.76953-1.3555-1.1562-2.4062-1.1562-1.0547 0-1.8594 0.38672-2.4219 1.1562-0.55469 0.77344-0.82812 1.8828-0.82812 3.3281 0 1.4492 0.27344 2.5586 0.82812 3.3281 0.5625 0.77344 1.3672 1.1562 2.4219 1.1562zm-3.25-9.9219c0.67578-0.88281 1.4219-1.5391 2.2344-1.9688 0.82031-0.42578 1.7656-0.64062 2.8281-0.64062 1.8945 0 3.4453 0.75 4.6562 2.25 1.207 1.5 1.8125 3.4336 1.8125 5.7969 0 2.3555-0.60547 4.2812-1.8125 5.7812-1.2109 1.5-2.7617 2.25-4.6562 2.25-1.0625 0-2.0078-0.21094-2.8281-0.625-0.8125-0.42578-1.5586-1.0859-2.2344-1.9844v2.2188h-4.8906v-21.281h4.8906z"/>
  </symbol>
  <symbol id="k" overflow="visible">
   <path d="m0.34375-15.312h4.8906l4.125 10.391 3.5-10.391h4.8906l-6.4375 16.766c-0.64844 1.6953-1.4023 2.8828-2.2656 3.5625-0.86719 0.6875-2 1.0312-3.4062 1.0312h-2.8438v-3.2188h1.5312c0.83203 0 1.4375-0.13672 1.8125-0.40625 0.38281-0.26172 0.67969-0.73047 0.89062-1.4062l0.14062-0.42188z"/>
  </symbol>
  <symbol id="j" overflow="visible">
   <path d="m2.5781-20.406h5.25v7.7656h7.7656v-7.7656h5.2656v20.406h-5.2656v-8.6562h-7.7656v8.6562h-5.25z"/>
  </symbol>
  <symbol id="v" overflow="visible">
   <path d="m2.3594-21.281h4.8906v21.281h-4.8906z"/>
  </symbol>
  <symbol id="i" overflow="visible">
   <path d="m12.422-21.281v3.2188h-2.7031c-0.6875 0-1.1719 0.125-1.4531 0.375-0.27344 0.25-0.40625 0.6875-0.40625 1.3125v1.0625h4.1875v3.5h-4.1875v11.812h-4.8906v-11.812h-2.4375v-3.5h2.4375v-1.0625c0-1.6641 0.46094-2.8984 1.3906-3.7031 0.92578-0.80078 2.3672-1.2031 4.3281-1.2031z"/>
  </symbol>
  <symbol id="u" overflow="visible">
   <path d="m1.5938-15.312h13.359v3.4219l-8.0625 8.3906h8.0625v3.5h-13.688v-3.4219l8.0625-8.3906h-7.7344z"/>
  </symbol>
  <symbol id="t" overflow="visible">
   <path d="m16.781-19.766v4.3125c-1.125-0.5-2.2266-0.875-3.2969-1.125-1.0625-0.25781-2.0703-0.39062-3.0156-0.39062-1.25 0-2.1797 0.17969-2.7812 0.53125-0.60547 0.34375-0.90625 0.88281-0.90625 1.6094 0 0.54297 0.20312 0.96875 0.60938 1.2812 0.40625 0.30469 1.1406 0.5625 2.2031 0.78125l2.25 0.45312c2.2695 0.44922 3.8789 1.1406 4.8281 2.0781 0.95703 0.92969 1.4375 2.2461 1.4375 3.9531 0 2.25-0.66797 3.9297-2 5.0312-1.3359 1.0938-3.3711 1.6406-6.1094 1.6406-1.3047 0-2.6055-0.125-3.9062-0.375-1.3047-0.23828-2.6055-0.59766-3.9062-1.0781v-4.4531c1.3008 0.69922 2.5625 1.2266 3.7812 1.5781 1.2188 0.34375 2.3906 0.51562 3.5156 0.51562 1.1562 0 2.0352-0.1875 2.6406-0.5625 0.61328-0.38281 0.92188-0.9375 0.92188-1.6562 0-0.63281-0.21094-1.125-0.625-1.4688-0.41797-0.34375-1.2461-0.65625-2.4844-0.9375l-2.0312-0.4375c-2.043-0.4375-3.5391-1.1328-4.4844-2.0938-0.9375-0.95703-1.4062-2.25-1.4062-3.875 0-2.0312 0.65625-3.5938 1.9688-4.6875s3.1953-1.6406 5.6562-1.6406c1.125 0 2.2734 0.085938 3.4531 0.25 1.1875 0.16797 2.4141 0.42188 3.6875 0.76562z"/>
  </symbol>
  <symbol id="h" overflow="visible">
   <path d="m2.1875-5.9688v-9.3438h4.9219v1.5312c0 0.83594-0.007813 1.875-0.015625 3.125-0.011719 1.25-0.015625 2.0859-0.015625 2.5 0 1.2422 0.03125 2.1328 0.09375 2.6719 0.070313 0.54297 0.17969 0.93359 0.32812 1.1719 0.20703 0.32422 0.47266 0.57422 0.79688 0.75 0.32031 0.16797 0.69141 0.25 1.1094 0.25 1.0195 0 1.8203-0.39062 2.4062-1.1719 0.58203-0.78125 0.875-1.8672 0.875-3.2656v-7.5625h4.8906v15.312h-4.8906v-2.2188c-0.74219 0.89844-1.5234 1.5586-2.3438 1.9844-0.82422 0.41406-1.7344 0.625-2.7344 0.625-1.7617 0-3.1055-0.53906-4.0312-1.625-0.92969-1.082-1.3906-2.6602-1.3906-4.7344z"/>
  </symbol>
  <symbol id="s" overflow="visible">
   <path d="m2.3594-15.312h4.8906v15.312h-4.8906zm0-5.9688h4.8906v4h-4.8906z"/>
  </symbol>
  <symbol id="e" overflow="visible">
   <path d="m9.6406-12.188c-1.0859 0-1.9141 0.39062-2.4844 1.1719-0.57422 0.78125-0.85938 1.9062-0.85938 3.375s0.28516 2.5938 0.85938 3.375c0.57031 0.77344 1.3984 1.1562 2.4844 1.1562 1.0625 0 1.875-0.38281 2.4375-1.1562 0.57031-0.78125 0.85938-1.9062 0.85938-3.375s-0.28906-2.5938-0.85938-3.375c-0.5625-0.78125-1.375-1.1719-2.4375-1.1719zm0-3.5c2.6328 0 4.6914 0.71484 6.1719 2.1406 1.4766 1.418 2.2188 3.3867 2.2188 5.9062 0 2.5117-0.74219 4.4805-2.2188 5.9062-1.4805 1.418-3.5391 2.125-6.1719 2.125-2.6484 0-4.7148-0.70703-6.2031-2.125-1.4922-1.4258-2.2344-3.3945-2.2344-5.9062 0-2.5195 0.74219-4.4883 2.2344-5.9062 1.4883-1.4258 3.5547-2.1406 6.2031-2.1406z"/>
  </symbol>
  <symbol id="r" overflow="visible">
   <path d="m16.547-12.766c0.61328-0.94531 1.3477-1.6719 2.2031-2.1719 0.85156-0.5 1.7891-0.75 2.8125-0.75 1.7578 0 3.0977 0.54688 4.0156 1.6406 0.92578 1.0859 1.3906 2.6562 1.3906 4.7188v9.3281h-4.9219v-7.9844-0.35938c0.007813-0.13281 0.015625-0.32031 0.015625-0.5625 0-1.082-0.16406-1.8633-0.48438-2.3438-0.3125-0.48828-0.82422-0.73438-1.5312-0.73438-0.92969 0-1.6484 0.38672-2.1562 1.1562-0.51172 0.76172-0.77344 1.8672-0.78125 3.3125v7.5156h-4.9219v-7.9844c0-1.6953-0.14844-2.7852-0.4375-3.2656-0.29297-0.48828-0.8125-0.73438-1.5625-0.73438-0.9375 0-1.6641 0.38672-2.1719 1.1562-0.51172 0.76172-0.76562 1.8594-0.76562 3.2969v7.5312h-4.9219v-15.312h4.9219v2.2344c0.60156-0.86328 1.2891-1.5156 2.0625-1.9531 0.78125-0.4375 1.6406-0.65625 2.5781-0.65625 1.0625 0 2 0.25781 2.8125 0.76562 0.8125 0.51172 1.4258 1.2305 1.8438 2.1562z"/>
  </symbol>
  <symbol id="q" overflow="visible">
   <path d="m17.75-9.3281v9.3281h-4.9219v-7.1094c0-1.3438-0.03125-2.2656-0.09375-2.7656s-0.16797-0.86719-0.3125-1.1094c-0.1875-0.3125-0.44922-0.55469-0.78125-0.73438-0.32422-0.17578-0.69531-0.26562-1.1094-0.26562-1.0234 0-1.8242 0.39844-2.4062 1.1875-0.58594 0.78125-0.875 1.8711-0.875 3.2656v7.5312h-4.8906v-21.281h4.8906v8.2031c0.73828-0.88281 1.5195-1.5391 2.3438-1.9688 0.83203-0.42578 1.75-0.64062 2.75-0.64062 1.7695 0 3.1133 0.54688 4.0312 1.6406 0.91406 1.0859 1.375 2.6562 1.375 4.7188z"/>
  </symbol>
  <symbol id="p" overflow="visible">
   <path d="m2.5781-20.406h5.875l7.4219 14v-14h4.9844v20.406h-5.875l-7.4219-14v14h-4.9844z"/>
  </symbol>
  <symbol id="o" overflow="visible">
   <path d="m17.75-9.3281v9.3281h-4.9219v-7.1406c0-1.3203-0.03125-2.2344-0.09375-2.7344s-0.16797-0.86719-0.3125-1.1094c-0.1875-0.3125-0.44922-0.55469-0.78125-0.73438-0.32422-0.17578-0.69531-0.26562-1.1094-0.26562-1.0234 0-1.8242 0.39844-2.4062 1.1875-0.58594 0.78125-0.875 1.8711-0.875 3.2656v7.5312h-4.8906v-15.312h4.8906v2.2344c0.73828-0.88281 1.5195-1.5391 2.3438-1.9688 0.83203-0.42578 1.75-0.64062 2.75-0.64062 1.7695 0 3.1133 0.54688 4.0312 1.6406 0.91406 1.0859 1.375 2.6562 1.375 4.7188z"/>
  </symbol>
  <symbol id="n" overflow="visible">
   <path d="m2.5781-20.406h8.7344c2.5938 0 4.582 0.57812 5.9688 1.7344 1.3945 1.1484 2.0938 2.7891 2.0938 4.9219 0 2.1367-0.69922 3.7812-2.0938 4.9375-1.3867 1.1562-3.375 1.7344-5.9688 1.7344h-3.4844v7.0781h-5.25zm5.25 3.8125v5.7031h2.9219c1.0195 0 1.8047-0.25 2.3594-0.75 0.5625-0.5 0.84375-1.2031 0.84375-2.1094 0-0.91406-0.28125-1.6172-0.84375-2.1094-0.55469-0.48828-1.3398-0.73438-2.3594-0.73438z"/>
  </symbol>
  <symbol id="m" overflow="visible">
   <path d="m2.3594-15.312h4.8906v15.031c0 2.0508-0.49609 3.6172-1.4844 4.7031-0.98047 1.082-2.4062 1.625-4.2812 1.625h-2.4219v-3.2188h0.85938c0.92578 0 1.5625-0.21094 1.9062-0.625 0.35156-0.41797 0.53125-1.2461 0.53125-2.4844zm0-5.9688h4.8906v4h-4.8906z"/>
  </symbol>
  <symbol id="l" overflow="visible">
   <path d="m14.719-14.828v3.9844c-0.65625-0.45703-1.3242-0.79688-2-1.0156-0.66797-0.21875-1.3594-0.32812-2.0781-0.32812-1.3672 0-2.4336 0.40234-3.2031 1.2031-0.76172 0.79297-1.1406 1.9062-1.1406 3.3438 0 1.4297 0.37891 2.543 1.1406 3.3438 0.76953 0.79297 1.8359 1.1875 3.2031 1.1875 0.75781 0 1.4844-0.10938 2.1719-0.32812 0.6875-0.22656 1.3203-0.56641 1.9062-1.0156v4c-0.76172 0.28125-1.5391 0.48828-2.3281 0.625-0.78125 0.14453-1.5742 0.21875-2.375 0.21875-2.7617 0-4.9219-0.70703-6.4844-2.125-1.5547-1.4141-2.3281-3.3828-2.3281-5.9062 0-2.5312 0.77344-4.5039 2.3281-5.9219 1.5625-1.4141 3.7227-2.125 6.4844-2.125 0.80078 0 1.5938 0.074219 2.375 0.21875 0.78125 0.13672 1.5547 0.35156 2.3281 0.64062z"/>
  </symbol>
 </defs>
 <g>
  <path d="m563.46 213.2h-114.69v-4.1602h114.69c1.1797 0 2.1523-0.96875 2.1523-2.1523v-63.598c0-1.1797-0.96875-2.1445-2.1523-2.1445l-236.61-0.003906c-1.1797 0-2.1445 0.96484-2.1445 2.1445v11.547c0.015625 0.375-0.003906 1.9648-1.0742 3.0742-0.59375 0.62109-1.418 0.96875-2.3086 0.96875l-162.25 0.003906c-22.25 0-41.461 0-41.461 22.422h-4.1602c0-26.59 23.195-26.59 45.625-26.59h161.43l0.042969-11.418c0-3.4766 2.8281-6.3125 6.3047-6.3125h236.61c3.4844 0 6.3164 2.832 6.3164 6.3125v63.598c0 3.4727-2.832 6.3086-6.3164 6.3086z"/>
  <path d="m552.24 150.18c1.9805 0 3.5938 1.6055 3.5938 3.5938v42.352c0 1.9883-1.6133 3.5938-3.5938 3.5938l-63.547 0.003906c-1.9805 0-3.5938-1.6016-3.5938-3.5938v-42.352c0-1.9805 1.6133-3.5938 3.5938-3.5938l63.547-0.003907m0-4.1602h-63.547c-4.2773 0-7.7617 3.4766-7.7617 7.7578v42.352c0 4.2773 3.4844 7.7578 7.7617 7.7578h63.555c4.2852 0 7.7617-3.4766 7.7617-7.7578v-42.352c-0.007813-4.2812-3.4844-7.7578-7.7695-7.7578z"/>
  <path d="m549.32 197.07h-57.691c-2.1445 0-3.8789-1.7422-3.8789-3.875v-36.605c0-2.1406 1.7422-3.875 3.8789-3.875h57.691c2.1406 0 3.875 1.7422 3.875 3.875v36.605c0 2.1406-1.7344 3.875-3.875 3.875zm-0.28906-40.48-57.398 0.29297 0.28125 36.316 57.121-0.28516z"/>
  <path d="m378.8 200.61h-227.66c-1.1484 0-2.082-0.93359-2.082-2.082s0.93359-2.082 2.082-2.082h227.65c1.1484 0 2.082 0.93359 2.082 2.082s-0.92969 2.082-2.0781 2.082z"/>
  <path d="m141.98 423.82c-7.1055 0-24.199-5.3047-25.094-5.7695-2.1172-1.0898-3.4258-3.2422-3.4258-5.6133v-231.15h4.1602v231.15c0 0.8125 0.44922 1.5352 1.1641 1.9023 1.1328 0.44141 17 5.3086 23.199 5.3086h0.17969 419.98c6.4297 0 17.914-4.5039 19.195-5.3633 0.375-0.28125 1.0547-0.92578 1.0547-1.8477l0.003906-231.15c0-0.30859-0.0625-0.59375-0.18359-0.85547l1.2305-1.9141-1.4883 1.4609c-0.57812-0.63672-1.1094-1.0938-1.7734-1.5352-1.0938-0.71094-2.0898-1.2109-3.125-1.7148l-0.64453-0.30859c-0.99609-0.47656-1.9922-0.95703-2.957-1.5078-1.3945-0.77734-2.4922-1.5469-3.4492-2.4258-1.125-1.0195-2.0508-2.207-2.7266-3.5117-0.71875-1.3789-1.2148-2.9414-1.4492-4.6484-0.042969-0.29688-0.085938-0.60938-0.11328-0.94531-0.054688-0.58984-0.089844-1.2617-0.089844-1.9648h4.168c0 0.56641 0.023438 1.0977 0.074219 1.6055l0.078125 0.70703c0.17969 1.2656 0.51953 2.3477 1.0234 3.3203 0.46094 0.87891 1.0586 1.6523 1.8438 2.3594 0.71875 0.64844 1.5664 1.25 2.6875 1.8711 0.89062 0.50781 1.8047 0.94531 2.7031 1.3789l0.65625 0.32031c1.1914 0.57031 2.3516 1.1641 3.4062 1.8477 1.1875 0.78516 1.9922 1.4766 2.6836 2.2578 0.37109 0.41016 0.64453 0.8125 0.86328 1.2305 0.55469 1.1641 0.75 2.0508 0.75 2.9688l-0.007813 231.15c0 2-1.0039 3.8906-2.75 5.2031-1.6875 1.2617-14.152 6.1836-21.668 6.1836h-419.95c-0.066406-0.003906-0.14453-0.003906-0.21094-0.003906z"/>
  <path d="m579.57 174.57h-4.168v-20.887c0-0.42188-0.125-0.82812-0.35156-1.1914-0.10156-0.13281-0.21094-0.27344-0.33984-0.38672-0.62109-0.44141-1.0312-0.56641-1.4492-0.56641h-4.2227c-0.23047 0-0.44922 0.035156-0.64453 0.10547l-1.3789-3.9297c0.63672-0.22266 1.3203-0.33984 2.0234-0.33984h4.2227c1.2422 0 2.4453 0.35938 3.4727 1.0469 0.26953 0.16797 0.53906 0.37891 0.78906 0.60938 0.37109 0.34766 0.69922 0.72266 0.99219 1.1484 0.69922 1.0703 1.0586 2.2695 1.0586 3.5039z"/>
  <path d="m368.82 180.93c-4.8008 0-8.707-3.9102-8.707-8.7148 0-4.8047 3.9023-8.707 8.707-8.707 4.8047 0 8.7148 3.9023 8.7148 8.707 0 4.8047-3.9023 8.7148-8.7148 8.7148zm0-14.652c-3.2695 0-5.9375 2.6641-5.9375 5.9375 0 3.2695 2.6641 5.9375 5.9375 5.9375 3.2695 0 5.9375-2.6641 5.9375-5.9375 0-3.2695-2.6641-5.9375-5.9375-5.9375z"/>
  <path d="m375.32 168.58 0.85547 2.6445-13.926 4.4961-0.85547-2.6445z"/>
  <path d="m217.52 239.15c-1.9531 0-3.8008-0.75781-5.2031-2.1289-2.9219-2.8672-2.9727-7.582-0.11328-10.512 2.7812-2.832 7.6758-2.8828 10.516-0.10547 2.918 2.8711 2.9688 7.582 0.10547 10.512-1.4062 1.4414-3.2891 2.2344-5.3047 2.2344zm0-12.082c-1.2656 0-2.4414 0.49219-3.3281 1.3906-1.793 1.8359-1.7656 4.7891 0.066406 6.5859 1.7734 1.7422 4.8477 1.707 6.5859-0.0625 1.7969-1.8359 1.7656-4.7891-0.066406-6.5898-0.87109-0.85547-2.0312-1.3242-3.2578-1.3242z"/>
  <path d="m212.77 227.74 10.82 5.3906-1.2383 2.4844-10.82-5.3906z"/>
  <path d="m273.68 308.68c-3.4258 0-6.5469-2.0156-7.9453-5.1406-1.9648-4.3867 0-9.5469 4.375-11.52 4.2969-1.9023 9.6094 0.13281 11.52 4.3789 1.9648 4.3789-0.003906 9.543-4.3789 11.512-1.1367 0.51562-2.3359 0.76953-3.5703 0.76953zm-0.007812-14.641c-0.83594 0-1.6523 0.17188-2.4297 0.52734-2.9727 1.332-4.3125 4.8477-2.9727 7.8398 1.293 2.8945 4.9102 4.2969 7.8398 2.9805 2.9805-1.3398 4.3164-4.8555 2.9805-7.8398-0.94922-2.1367-3.0781-3.5078-5.418-3.5078z"/>
  <path d="m269.85 293.53 9.8164 10.867-2.0625 1.8633-9.8164-10.867z"/>
  <path d="m442.35 185.63h-40.668c-2.0703 0-3.7578-1.6875-3.7578-3.7578v-25.727c0-2.0664 1.6875-3.7539 3.7578-3.7539h40.668c2.0703 0 3.7539 1.6875 3.7539 3.7539v25.727c0 2.0781-1.6797 3.7578-3.7539 3.7578zm-40.25-4.168h39.844v-24.898h-39.844z"/>
  <path d="m444.98 150.18c1.8438 0 3.3477 1.5 3.3477 3.3477v30.973c0 1.8477-1.5078 3.3438-3.3477 3.3438h-45.922c-1.8477 0-3.3477-1.4961-3.3477-3.3438v-30.973c0-1.8477 1.5-3.3477 3.3477-3.3477h45.922m0-4.1602h-45.922c-4.1445 0-7.5078 3.3711-7.5078 7.5078v30.973c0 4.1367 3.3672 7.5078 7.5078 7.5078h45.922c4.1445 0 7.5156-3.3711 7.5156-7.5078v-30.973c0-4.1367-3.3711-7.5078-7.5156-7.5078z"/>
  <path d="m404.12 154.48h2.7773v29.062h-2.7773z"/>
  <path d="m409.62 154.48h2.7773v29.062h-2.7773z"/>
  <path d="m415.12 154.48h2.7734v29.062h-2.7734z"/>
  <path d="m420.62 154.48h2.7773v29.062h-2.7773z"/>
  <path d="m426.14 154.48h2.7773v29.062h-2.7773z"/>
  <path d="m431.63 154.48h2.7773v29.062h-2.7773z"/>
  <path d="m437.14 154.48h2.7773v29.062h-2.7773z"/>
  <path d="m396.32 408.96c-58.992 0-106.99-47.992-106.99-106.99 0-58.992 47.996-106.98 106.99-106.98 58.984 0 106.98 47.992 106.98 106.98 0.003906 58.996-47.988 106.99-106.98 106.99zm0-209.81c-56.695 0-102.82 46.121-102.82 102.82 0 56.699 46.129 102.83 102.82 102.83 56.695 0 102.81-46.129 102.81-102.83 0.007812-56.688-46.105-102.82-102.81-102.82z"/>
  <path d="m396.32 394.92c-51.25 0-92.949-41.699-92.949-92.949s41.691-92.938 92.949-92.938c51.246 0 92.949 41.688 92.949 92.938s-41.695 92.949-92.949 92.949zm0-181.72c-48.957 0-88.781 39.82-88.781 88.777 0 48.957 39.82 88.781 88.781 88.781 48.961 0 88.781-39.82 88.781-88.781 0.003906-48.953-39.82-88.777-88.781-88.777z"/>
  <path d="m396.32 369.72c-37.359 0-67.754-30.398-67.754-67.754 0-37.352 30.398-67.742 67.754-67.742 37.359 0 67.75 30.391 67.75 67.742 0 37.363-30.391 67.754-67.75 67.754zm0-131.32c-35.062 0-63.582 28.52-63.582 63.578 0 35.066 28.527 63.582 63.582 63.582 35.055 0 63.582-28.52 63.582-63.582 0-35.059-28.52-63.578-63.582-63.578z"/>
  <path d="m396.32 348.19c-25.48 0-46.211-20.73-46.211-46.219 0-25.473 20.73-46.199 46.211-46.199 25.473 0 46.207 20.727 46.207 46.199 0 25.488-20.73 46.219-46.207 46.219zm0-88.258c-23.184 0-42.051 18.859-42.051 42.039 0 23.191 18.867 42.051 42.051 42.051s42.039-18.859 42.039-42.051c0-23.176-18.855-42.039-42.039-42.039z"/>
  <path d="m396.34 337.82c-12.859 0-24.797-6.9375-31.152-18.105-4.7422-8.3047-5.9531-17.965-3.4258-27.195 2.5273-9.2305 8.5-16.922 16.816-21.668 5.4023-3.0781 11.531-4.7031 17.707-4.7031 12.859 0 24.797 6.9258 31.152 18.082 4.7422 8.3203 5.957 17.98 3.4336 27.211-2.5312 9.2305-8.5 16.918-16.816 21.66-5.3945 3.082-11.52 4.7188-17.715 4.7188zm-0.054688-67.504c-5.4609 0-10.871 1.4336-15.645 4.1562-7.3477 4.1875-12.629 10.988-14.863 19.145-2.2305 8.1602-1.1523 16.695 3.0352 24.039 5.6211 9.8633 16.18 15.992 27.535 15.992 5.4648 0 10.875-1.4453 15.652-4.1719 7.3477-4.1836 12.629-10.98 14.855-19.137 2.2305-8.1602 1.1523-16.695-3.0391-24.051-5.6211-9.8555-16.172-15.973-27.531-15.973z"/>
  <path d="m376.98 315.08c-0.72266 0-1.4297-0.375-1.8086-1.0547-5.0508-8.8594-4.0078-20.031 2.5977-27.805 0.74609-0.875 2.0625-0.98438 2.9336-0.24219 0.875 0.75 0.98438 2.0625 0.24219 2.9336-5.4805 6.4414-6.3516 15.695-2.1562 23.043 0.57031 1.0039 0.21875 2.2734-0.78516 2.8438-0.31641 0.19922-0.67188 0.28125-1.0234 0.28125z"/>
  <path d="m383.47 285.89c-0.65625 0-1.3008-0.3125-1.7031-0.88672-0.66016-0.94141-0.4375-2.2383 0.50781-2.9062 0.45312-0.32031 0.94141-0.63672 1.4375-0.93359 0.99219-0.58203 2.2617-0.26953 2.8555 0.72266 0.58203 0.99219 0.26953 2.2617-0.72266 2.8633-0.40234 0.24219-0.80469 0.5-1.1875 0.76562-0.35938 0.24609-0.78125 0.375-1.1875 0.375z"/>
  <path d="m277.91 184.49h-22.406c-3.2031 0-5.8125-2.6094-5.8125-5.8125v-10.863c0-3.2031 2.6094-5.8125 5.8125-5.8125h22.406c3.2031 0 5.8125 2.6094 5.8125 5.8125v10.863c0 3.2031-2.6094 5.8125-5.8125 5.8125zm-22.406-18.324c-0.90625 0-1.6523 0.73828-1.6523 1.6445v10.863c0 0.90625 0.74609 1.6523 1.6523 1.6523h22.406c0.90625 0 1.6445-0.74609 1.6445-1.6523v-10.863c0-0.90625-0.73828-1.6445-1.6445-1.6445z"/>
  <path d="m117.61 231.7h-4.168v-0.82812c0-5.5156 9.832-8.0312 18.969-8.0312h73.695v4.168h-73.695c-9.7031 0-14.801 2.8672-14.801 3.8594z"/>
  <path d="m295.99 279.12h-4.168v-52.125h-62.949v-4.168h64.645c1.3594 0 2.4688 1.1094 2.4688 2.4688z"/>
  <path d="m482.7 239.53h-4.168v-14.203c0-1.3789 1.1211-2.5039 2.4961-2.5039l90.168 0.003907c5.4805 0 10.629 0.89062 14.117 2.4453l-1.6914 3.8086c-2.9297-1.3047-7.582-2.082-12.434-2.082h-88.488z"/>
  <path d="m550.5 405.07h-125.73v-4.1641h125.73c13.41 0 28.895-1.7578 32.57-5.125l2.8125 3.0742c-6.457 5.918-30.609 6.2148-35.383 6.2148z"/>
  <path d="m348.84 400.89h19.047v4.1602h-19.047z"/>
  <path d="m324.57 405.05h-176.45c-2.5586 0-25.25-0.14063-33.633-4.9375l2.0664-3.6172c5.2656 3.0195 20.059 4.3906 31.566 4.3906h176.45z"/>
  <path d="m231.02 158.87h-60.742c-1.3828 0-2.5039-1.125-2.5039-2.5039v-1.6406c0-1.3828 1.1211-2.5078 2.5039-2.5078h60.742c1.3828 0 2.5039 1.125 2.5039 2.5078v1.6406c0 1.3789-1.1211 2.5039-2.5039 2.5039z"/>
  <path d="m227.47 156.38h-53.652v-9.6914h4.1602v5.5312h45.324v-5.5312h4.168z"/>
  <path d="m225.6 140.35c0.23438 0 0.42578 0.19141 0.42578 0.42188v3.9688c0 0.23047-0.19141 0.42188-0.42578 0.42188h-49.906c-0.23047 0-0.42188-0.19141-0.42188-0.42188v-3.9688c0-0.23047 0.19141-0.42188 0.42188-0.42188h49.906m0-4.1719h-49.906c-2.5273 0-4.582 2.0625-4.582 4.5859v3.9688c0 2.5273 2.0547 4.5859 4.582 4.5859h49.906c2.5312 0 4.5938-2.0625 4.5938-4.5859v-3.9688c-0.003906-2.5195-2.0625-4.5859-4.5938-4.5859z"/>
  <path d="m306.27 159.04h-59.004v-11.832h59.004zm-54.844-4.1641h50.68v-3.5h-50.68z"/>
  <path d="m304.61 151.38h-55.691c-1.3789 0-2.5039-1.1211-2.5039-2.5039v-9.3906c0-1.3789 1.125-2.5039 2.5039-2.5039h55.688c1.3789 0 2.4961 1.125 2.4961 2.5039v9.3906c0.003906 1.3828-1.1172 2.5039-2.4922 2.5039zm-54.035-4.168h52.371v-6.0664h-52.371z"/>
  <path d="m570.16 148.96 7.8203 7.8203-0.97656 0.97656-7.8203-7.8203z"/>
  <path d="m568.19 152.22 9.7812 9.7891-0.97656 0.97656-9.7812-9.7891z"/>
  <path d="m568.18 157.44 9.7812 9.793-0.98047 0.97656-9.7812-9.793z"/>
  <path d="m577 173.43-9.7109-9.7109 0.41406-0.56641 0.5-0.48828 9.7695 9.7773z"/>
  <path d="m571.55 148.95 0.98438 0.98047-4.3164 4.3398-0.98438-0.98047z"/>
  <path d="m568.19 159.49-0.98438-0.97656 8.3672-8.3633 1.0469 0.90625-0.054688 0.054687z"/>
  <path d="m576.93 153.89 0.99609 0.96094-9.6289 9.957-0.99609-0.96094z"/>
  <path d="m576.98 159.19 0.98047 0.98438-8.3945 8.3477-0.98047-0.98438z"/>
  <path d="m576.99 164.38 0.98438 0.98438-6.082 6.082-0.98438-0.98438z"/>
  <path d="m577.02 169.59 0.98828 0.98438-3 3.0195-0.98828-0.98438z"/>
  <path d="m253.63 139.47 0.98047 0.98438-5.6406 5.6055-0.98047-0.98438z"/>
  <path d="m258.92 139.53 0.96875 0.99609-9.4688 9.2109-0.96875-0.99609z"/>
  <path d="m255.7 149.79-0.95703-1.0078 0.42188-0.40234 8.9062-8.9258 0.98828 0.98047z"/>
  <path d="m260.92 149.79-0.95703-1.0078 0.41797-0.40234 8.9219-8.9258 0.98047 0.98047z"/>
  <path d="m274.59 139.52 0.96875 0.99609-9.4688 9.2109-0.96875-0.99609z"/>
  <path d="m280 139.34 0.96875 0.99609-9.6641 9.3984-0.96875-0.99609z"/>
  <path d="m276.59 149.79-0.96484-0.99609 0.4375-0.41406 9.082-9.1055 0.99219 0.97266z"/>
  <path d="m281.8 149.79-0.96484-0.99609 0.44141-0.41406 9.0898-9.1055 0.98047 0.98437z"/>
  <path d="m287.03 149.79-0.95703-1.0078 0.42188-0.40234 8.918-8.9258 0.98828 0.98047z"/>
  <path d="m300.43 139.79 0.96875 0.99609-9.2109 8.957-0.96875-0.99609z"/>
  <path d="m303.28 142.12 0.96875 0.99609-6.8203 6.6328-0.96875-0.99609z"/>
  <path d="m304.55 146.01 0.96875 0.99609-2.8477 2.7695-0.96875-0.99609z"/>
  <path d="m298.64 138.93 6.875 6.875-0.98047 0.98047-6.875-6.875z"/>
  <path d="m293.98 139.48 9.3359 9.332-0.97656 0.97656-9.3359-9.332z"/>
  <path d="m297.11 149.79-0.44141-0.42578-9.5039-9.5078 0.98047-0.98047 9.9336 9.918z"/>
  <path d="m291.89 149.79-0.44531-0.42578-9.4961-9.5078 0.97266-0.98047 9.9375 9.918z"/>
  <path d="m277.71 138.87 9.9336 9.9336-0.98047 0.98047-9.9336-9.9336z"/>
  <path d="m272.86 139.25 9.5586 9.5508-0.98438 0.98438-9.5586-9.5508z"/>
  <path d="m276.23 149.79-0.44922-0.42578-9.4961-9.5078 0.98438-0.98047 9.9297 9.918z"/>
  <path d="m271.01 149.79-0.45703-0.42578-9.5039-9.5117 0.98047-0.98047 9.9336 9.9102z"/>
  <path d="m265.79 149.79-0.42578-0.40625-9.0352-9.0391 0.98047-0.98047 9.4375 9.418z"/>
  <path d="m252.19 139.46 9.3516 9.3516-0.97656 0.97656-9.3516-9.3516z"/>
  <path d="m249.58 142.07 6.7344 6.7344-0.97656 0.97656-6.7344-6.7344z"/>
  <path d="m248.98 146.71 2.1172 2.1055-0.97656 0.98047-2.1172-2.1055z"/>
  <path d="m273.68 317.09c-6.7305 0-12.863-3.9688-15.617-10.113-1.875-4.1719-2.0039-8.8242-0.37891-13.098 1.625-4.2773 4.8164-7.6562 8.9922-9.5312 2.2227-1.0039 4.5742-1.5117 7-1.5117 6.7305 0 12.867 3.9805 15.625 10.125 1.8711 4.1719 2.0039 8.8242 0.37891 13.098-1.6289 4.2773-4.8203 7.6602-8.9922 9.5273-2.2227 1-4.582 1.5039-7.0078 1.5039zm-0.003906-30.086c-1.8242 0-3.6133 0.38672-5.2969 1.1406-3.1523 1.418-5.5703 3.9766-6.8047 7.2109-1.2305 3.2383-1.1328 6.7539 0.29297 9.9102 2.832 6.3164 10.742 9.3672 17.121 6.5117 3.1602-1.4102 5.5781-3.9688 6.8086-7.207 1.2305-3.2383 1.125-6.7539-0.29297-9.9102-2.0938-4.6484-6.7383-7.6562-11.828-7.6562z"/>
  <path d="m287.39 291.73h4.3516v4.168h-4.3516z"/>
  <path d="m287.39 304.04h4.0195v4.168h-4.0195z"/>
  <path d="m331.87 421.28c-0.99609 0-1.9336-0.36328-2.6445-1.043l-3.9883-3.9805c-0.36328-0.36328-0.58203-0.86328-0.60547-1.3828-0.98047-22.137-19.074-40.242-41.211-41.211-0.51562-0.027343-1.0117-0.24609-1.3789-0.60547l-3.6953-3.6914c-0.73828-0.76563-1.1328-1.7344-1.1328-2.7422 0-0.97266 0.35156-1.8984 1.0117-2.6133l16.559-16.477c0.48047-0.47656 1.1719-0.69531 1.832-0.57812 0.66797 0.11719 1.2305 0.54688 1.5195 1.1602 10.801 22.938 29.398 41.469 52.359 52.188 0.61719 0.29297 1.0547 0.85547 1.1719 1.5234 0.11719 0.67188-0.10156 1.3555-0.57812 1.832l-16.438 16.441c-0.86719 0.8125-1.7969 1.1797-2.7812 1.1797zm-3.1211-7.4023 3.1211 3.1211 14.203-14.203c-21.738-10.859-39.484-28.555-50.41-50.266l-14.301 14.223 3.0117 2.7812c23.645 1.4375 42.914 20.699 44.375 44.344z"/>
  <path d="m216.38 351.57c-15.848 0-28.738-12.875-28.738-28.684 0-8.7305 3.9492-16.895 10.836-22.398l2.6055 3.2539c-5.8984 4.7148-9.2695 11.688-9.2695 19.145 0 13.52 11.02 24.516 24.574 24.516 13.523 0 24.523-11 24.523-24.516 0-7.4297-3.3672-14.41-9.2227-19.152l2.6211-3.2422c6.8477 5.5312 10.77 13.699 10.77 22.395-0.015625 15.809-12.887 28.684-28.699 28.684z"/>
  <path d="m216.36 344.48c-11.898 0-21.582-9.6836-21.582-21.582 0-11.898 9.6836-21.582 21.582-21.582 11.895 0 21.578 9.6836 21.578 21.582-0.003906 11.902-9.6836 21.582-21.578 21.582zm0-38.992c-9.6055 0-17.414 7.8125-17.414 17.41 0 9.5977 7.8164 17.41 17.414 17.41 9.5977 0 17.406-7.8125 17.406-17.41-0.003906-9.5977-7.8086-17.41-17.406-17.41z"/>
  <path d="m216.36 337.98c-8.3164 0-15.074-6.7656-15.074-15.074s6.7578-15.07 15.074-15.07c8.3047 0 15.07 6.7578 15.07 15.07-0.003906 8.3086-6.7656 15.074-15.07 15.074zm0-25.988c-6.0195 0-10.914 4.8945-10.914 10.91 0 6.0078 4.8945 10.91 10.914 10.91 6.0078 0 10.902-4.8984 10.902-10.91 0-6.0156-4.8945-10.91-10.902-10.91z"/>
  <path d="m216.36 280.3c-8.418 0-15.27-6.8477-15.27-15.266 0-8.4219 6.8555-15.27 15.27-15.27 8.4102 0 15.262 6.8477 15.262 15.27-0.007812 8.418-6.8516 15.266-15.262 15.266zm0-26.363c-6.1211 0-11.098 4.9766-11.098 11.098s4.9844 11.098 11.098 11.098 11.094-4.9844 11.094-11.098c0-6.125-4.9805-11.098-11.094-11.098z"/>
  <path d="m230.6 269.79 7.3164 52.812-4.1211 0.57031-7.3164-52.812z"/>
  <path d="m202.14 269.81 4.125 0.57422-7.3398 52.805-4.125-0.57422z"/>
  <path d="m509.86 318.92c-2.0391 0-4.0898-0.33984-6.0742-1.0312-1.5586-0.53906-3.0469-1.2812-4.4141-2.2188l2.3594-3.4375c1.0547 0.72656 2.207 1.3008 3.4102 1.7188 3.6406 1.2539 7.5469 1.0312 11.016-0.66797 3.4492-1.6875 6.0469-4.6133 7.3086-8.2539 1.4336-4.1562 0.90234-8.6758-1.4492-12.395-1.7656-2.7891-4.3438-4.8398-7.4766-5.918-3.1406-1.082-6.4297-1.0547-9.5273 0.050781-1.293 0.45312-2.5078 1.0938-3.625 1.9141l-2.4531-3.375c1.4492-1.0547 3.0195-1.8828 4.6875-2.4648 3.9375-1.4062 8.293-1.4336 12.27-0.066406 3.9805 1.3789 7.3984 4.0898 9.6367 7.6328 3.0391 4.793 3.7227 10.617 1.8711 15.977-1.6172 4.6914-4.9688 8.4727-9.4258 10.641-2.5703 1.2656-5.3359 1.8945-8.1133 1.8945z"/>
  <path d="m509.85 311.65c-1.2422 0-2.4805-0.20703-3.6914-0.62109-3.1875-1.1016-5.707-3.5508-6.8945-6.7031l3.8906-1.4766c0.76172 2 2.3516 3.5508 4.3633 4.2461 3.6953 1.2812 7.7891-0.70703 9.0664-4.4258 1.2812-3.7188-0.69922-7.7969-4.418-9.0781-3.7227-1.2891-7.7969 0.70703-9.0781 4.4297l-3.9375-1.3672c2.0312-5.8789 8.4688-9.0234 14.371-7 5.8984 2.0391 9.0312 8.4844 7 14.371-0.98438 2.8555-3.0195 5.1523-5.7305 6.4727-1.5703 0.76562-3.2461 1.1523-4.9414 1.1523z"/>
  <path d="m521.53 279.06c-1.3984 0-2.7773-0.23047-4.1055-0.69531-3.1875-1.0938-5.75-3.3711-7.2227-6.3945-1.4766-3.0312-1.6875-6.4453-0.58984-9.6328 2.2188-6.4062 9.582-10.031 16.027-7.8008 3.1758 1.0859 5.7383 3.3594 7.2188 6.3828 1.4844 3.0312 1.6875 6.4531 0.58203 9.6445-1.75 5.082-6.5391 8.4961-11.91 8.4961zm-0.003906-21.051c-3.5938 0-6.7969 2.2852-7.9805 5.6914-0.72656 2.1289-0.59375 4.418 0.39062 6.4453 0.98438 2.0273 2.7031 3.5508 4.832 4.2852 4.3438 1.5117 9.25-0.94141 10.73-5.2266 0.73828-2.1328 0.59375-4.4258-0.38672-6.4531-0.99219-2.0234-2.6992-3.543-4.832-4.2734-0.89453-0.30469-1.8203-0.46875-2.7539-0.46875z"/>
  <path d="m524.87 275.05 4.0898 0.80469-3.1523 16.051-4.0898-0.80469z"/>
  <path d="m509.84 269.29 3.7148 1.8867-7.4102 14.582-3.7148-1.8867z"/>
  <path d="m217.52 223.21c-2.8555 0-5.5508-1.0977-7.5938-3.1016-2.0703-2.0312-3.2305-4.75-3.2578-7.6445-0.027344-2.8945 1.0742-5.6406 3.1133-7.7109 4.0547-4.1445 11.207-4.2109 15.344-0.14453 2.0703 2.0273 3.2305 4.75 3.2578 7.6484 0.027344 2.8945-1.0742 5.6328-3.1094 7.6953-2.0586 2.0977-4.8125 3.2578-7.7539 3.2578zm0-17.539c-1.8086 0-3.5039 0.71094-4.7773 2.0039-1.2539 1.2773-1.9336 2.9609-1.9141 4.75 0.015625 1.7852 0.72656 3.4609 2.0039 4.7109 2.5547 2.5039 6.957 2.457 9.4648-0.09375 1.25-1.2773 1.9258-2.957 1.9102-4.7422-0.015625-1.7852-0.72656-3.4609-2.0039-4.7148-1.2539-1.2383-2.918-1.9141-4.6836-1.9141z"/>
  <path d="m217.52 245.46c-3.6172 0-7.0352-1.3906-9.6211-3.9297-0.70703-0.68359-1.3984-1.5469-2.0547-2.5664-2.0156-3.1211-2.6055-7.2109-1.5625-10.938l3.1484-12.125 4.0312 1.0547-3.168 12.203c-0.71875 2.5859-0.33203 5.4141 1.0547 7.5469 0.48047 0.75 0.98438 1.3828 1.4688 1.8477 1.832 1.7969 4.1875 2.8516 6.8086 2.7422 2.5586-0.023437 4.957-1.0469 6.7422-2.8711 0.16406-0.16797 0.32031-0.36328 0.46875-0.55859 0.39844-0.50391 0.60937-0.80078 0.81641-1.0977 0.34766-0.53125 0.64844-1.1094 0.86328-1.6953 0.23438-0.62109 0.39844-1.2539 0.48828-1.8867 0.10156-0.64453 0.125-1.2812 0.085938-1.9102-0.050782-0.67578-0.17969-1.3477-0.32422-2.0156l1.7969-1.4102-2.0039 0.54688-0.46875-1.7852 1.8867-1.0234-2.0117 0.50781-2.1055-8.1367 1.7656-1.4766-1.9805 0.66016 3.9805-1.2148 2.6484 10.207-1.8477 1.1641 2.0117-0.53906 0.41016 1.6406c0.17969 0.83984 0.33984 1.707 0.39844 2.5859 0.066406 0.93359 0.027344 1.8828-0.11719 2.8047-0.13281 0.91797-0.37109 1.8359-0.70703 2.7266-0.32422 0.86719-0.76172 1.7344-1.3008 2.5547-0.26953 0.39062-0.53906 0.76172-0.81641 1.1133-0.44922 0.57031-0.69531 0.86719-0.95703 1.1367-2.5742 2.6328-6.0078 4.0898-9.6836 4.1289-0.054687 0.007813-0.097656 0.007813-0.14453 0.007813z"/>
  <path d="m112.84 258.2c-8.1836 0-14.836-6.6523-14.836-14.828 0-8.1797 6.6523-14.828 14.836-14.828 1.0547 0 2.1016 0.11328 3.1367 0.33594l-0.86719 4.0781c-6.5508-1.4102-12.938 3.7852-12.938 10.422 0 6.6289 6.293 11.867 12.93 10.422l0.87891 4.0703c-1.043 0.21484-2.0938 0.32812-3.1406 0.32812z"/>
  <path d="m111.94 243.37c0 5.6055-8.4102 5.6055-8.4102 0 0-5.6094 8.4102-5.6094 8.4102 0"/>
  <path d="m587.18 258.2c-1.0547 0-2.1094-0.11719-3.1484-0.33984l0.89062-4.0703c6.5391 1.4375 12.918-3.793 12.918-10.422 0-5.8867-4.7812-10.668-10.664-10.668-0.76172 0-1.5234 0.085937-2.2578 0.24609l-0.87891-4.0781c1.0312-0.22266 2.082-0.33594 3.1406-0.33594 8.1797 0 14.824 6.6523 14.824 14.828 0 8.1875-6.6484 14.84-14.824 14.84z"/>
  <path d="m596.48 243.37c0 5.6055-8.4102 5.6055-8.4102 0 0-5.6094 8.4102-5.6094 8.4102 0"/>
  <path d="m281.14 245.39c0 3.3086-4.9609 3.3086-4.9609 0 0-3.3086 4.9609-3.3086 4.9609 0"/>
  <path d="m281.14 273.67c0 3.3086-4.9609 3.3086-4.9609 0s4.9609-3.3086 4.9609 0"/>
  <path d="m281.14 330.26c0 3.3047-4.9609 3.3047-4.9609 0 0-3.3086 4.9609-3.3086 4.9609 0"/>
  <path d="m281.14 358.56c0 3.3047-4.9609 3.3047-4.9609 0 0-3.3086 4.9609-3.3086 4.9609 0"/>
  <path d="m256.39 231.23c0 3.3008-4.9531 3.3008-4.9531 0s4.9531-3.3008 4.9531 0"/>
  <path d="m256.39 259.53c0 3.3008-4.9531 3.3008-4.9531 0s4.9531-3.3008 4.9531 0"/>
  <path d="m256.39 287.82c0 3.3008-4.9531 3.3008-4.9531 0s4.9531-3.3008 4.9531 0"/>
  <path d="m256.39 316.11c0 3.3008-4.9531 3.3008-4.9531 0s4.9531-3.3008 4.9531 0"/>
  <path d="m256.39 344.41c0 3.3008-4.9531 3.3008-4.9531 0 0-3.3008 4.9531-3.3008 4.9531 0"/>
  <path d="m231.63 245.39c0 3.3008-4.9531 3.3008-4.9531 0s4.9531-3.3008 4.9531 0"/>
  <path d="m231.63 358.56c0 3.2969-4.9531 3.2969-4.9531 0 0-3.3008 4.9531-3.3008 4.9531 0"/>
  <path d="m206.88 231.23c0 3.3008-4.9492 3.3008-4.9492 0s4.9492-3.3008 4.9492 0"/>
  <path d="m203.16 261.68c-0.74609-0.42578-1.2422-1.2266-1.2422-2.1445 0-1.3672 1.1016-2.4688 2.4688-2.4688 1.3633 0-0.86328 4.8203-1.2266 4.6133z"/>
  <path d="m182.12 245.39c0 3.3086-4.9648 3.3086-4.9648 0 0-3.3086 4.9648-3.3086 4.9648 0"/>
  <path d="m182.12 273.67c0 3.3086-4.9648 3.3086-4.9648 0s4.9648-3.3086 4.9648 0"/>
  <path d="m182.12 301.97c0 3.3086-4.9648 3.3086-4.9648 0 0-3.3047 4.9648-3.3047 4.9648 0"/>
  <path d="m182.12 330.26c0 3.3047-4.9648 3.3047-4.9648 0 0-3.3086 4.9648-3.3086 4.9648 0"/>
  <path d="m182.12 358.56c0 3.3047-4.9648 3.3047-4.9648 0 0-3.3086 4.9648-3.3086 4.9648 0"/>
  <path d="m157.36 231.23c0 3.3008-4.9492 3.3008-4.9492 0s4.9492-3.3008 4.9492 0"/>
  <path d="m157.36 259.53c0 3.3008-4.9492 3.3008-4.9492 0s4.9492-3.3008 4.9492 0"/>
  <path d="m157.36 287.82c0 3.3008-4.9492 3.3008-4.9492 0s4.9492-3.3008 4.9492 0"/>
  <path d="m157.36 316.11c0 3.3008-4.9492 3.3008-4.9492 0s4.9492-3.3008 4.9492 0"/>
  <path d="m157.36 344.41c0 3.3008-4.9492 3.3008-4.9492 0 0-3.3008 4.9492-3.3008 4.9492 0"/>
  <path d="m132.6 245.39c0 3.3008-4.9492 3.3008-4.9492 0s4.9492-3.3008 4.9492 0"/>
  <path d="m132.6 273.67c0 3.3008-4.9492 3.3008-4.9492 0s4.9492-3.3008 4.9492 0"/>
  <path d="m132.6 301.97c0 3.3008-4.9492 3.3008-4.9492 0 0-3.2969 4.9492-3.2969 4.9492 0"/>
  <path d="m132.6 330.26c0 3.2969-4.9492 3.2969-4.9492 0 0-3.3008 4.9492-3.3008 4.9492 0"/>
  <path d="m132.6 358.56c0 3.2969-4.9492 3.2969-4.9492 0 0-3.3008 4.9492-3.3008 4.9492 0"/>
  <path d="m305.89 400.99c0 3.3008-4.9492 3.3008-4.9492 0s4.9492-3.3008 4.9492 0"/>
  <path d="m281.14 386.86c0 3.3047-4.9609 3.3047-4.9609 0 0-3.3086 4.9609-3.3086 4.9609 0"/>
  <path d="m256.39 372.7c0 3.3008-4.9531 3.3008-4.9531 0s4.9531-3.3008 4.9531 0"/>
  <path d="m256.39 400.99c0 3.3008-4.9531 3.3008-4.9531 0s4.9531-3.3008 4.9531 0"/>
  <path d="m231.63 386.86c0 3.2969-4.9531 3.2969-4.9531 0 0-3.3008 4.9531-3.3008 4.9531 0"/>
  <path d="m206.88 372.7c0 3.3008-4.9492 3.3008-4.9492 0s4.9492-3.3008 4.9492 0"/>
  <path d="m206.88 400.99c0 3.3008-4.9492 3.3008-4.9492 0s4.9492-3.3008 4.9492 0"/>
  <path d="m182.12 386.86c0 3.3047-4.9648 3.3047-4.9648 0 0-3.3086 4.9648-3.3086 4.9648 0"/>
  <path d="m157.36 372.7c0 3.3008-4.9492 3.3008-4.9492 0s4.9492-3.3008 4.9492 0"/>
  <path d="m157.36 400.99c0 3.3008-4.9492 3.3008-4.9492 0s4.9492-3.3008 4.9492 0"/>
  <path d="m132.6 386.86c0 3.2969-4.9492 3.2969-4.9492 0 0-3.3008 4.9492-3.3008 4.9492 0"/>
  <path d="m579.99 245.39c0 3.3008-4.9492 3.3008-4.9492 0s4.9492-3.3008 4.9492 0"/>
  <path d="m579.99 273.67c0 3.3008-4.9492 3.3008-4.9492 0s4.9492-3.3008 4.9492 0"/>
  <path d="m579.99 301.97c0 3.3008-4.9492 3.3008-4.9492 0 0-3.2969 4.9492-3.2969 4.9492 0"/>
  <path d="m579.99 330.26c0 3.2969-4.9492 3.2969-4.9492 0 0-3.3008 4.9492-3.3008 4.9492 0"/>
  <path d="m579.99 358.56c0 3.2969-4.9492 3.2969-4.9492 0 0-3.3008 4.9492-3.3008 4.9492 0"/>
  <path d="m555.23 231.23c0 3.3008-4.9492 3.3008-4.9492 0s4.9492-3.3008 4.9492 0"/>
  <path d="m555.23 259.53c0 3.3008-4.9492 3.3008-4.9492 0s4.9492-3.3008 4.9492 0"/>
  <path d="m555.23 287.82c0 3.3008-4.9492 3.3008-4.9492 0s4.9492-3.3008 4.9492 0"/>
  <path d="m555.23 316.11c0 3.3008-4.9492 3.3008-4.9492 0s4.9492-3.3008 4.9492 0"/>
  <path d="m555.23 344.41c0 3.3008-4.9492 3.3008-4.9492 0 0-3.3008 4.9492-3.3008 4.9492 0"/>
  <path d="m530.49 245.39c0 3.3086-4.9609 3.3086-4.9609 0 0-3.3086 4.9609-3.3086 4.9609 0"/>
  <path d="m530.49 301.97c0 3.3086-4.9609 3.3086-4.9609 0 0-3.3047 4.9609-3.3047 4.9609 0"/>
  <path d="m530.49 330.26c0 3.3047-4.9609 3.3047-4.9609 0 0-3.3086 4.9609-3.3086 4.9609 0"/>
  <path d="m530.49 358.56c0 3.3047-4.9609 3.3047-4.9609 0 0-3.3086 4.9609-3.3086 4.9609 0"/>
  <path d="m505.73 231.23c0 3.3008-4.9531 3.3008-4.9531 0s4.9531-3.3008 4.9531 0"/>
  <path d="m505.73 259.53c0 3.3008-4.9531 3.3008-4.9531 0s4.9531-3.3008 4.9531 0"/>
  <path d="m505.73 316.11c0 1.3672-1.1094 2.4805-2.4766 2.4805s-2.4688-1.1133-2.4688-2.4805c0-1.3672 4.9453-1.3672 4.9453 0z"/>
  <path d="m505.73 344.41c0 3.3008-4.9531 3.3008-4.9531 0 0-3.3008 4.9531-3.3008 4.9531 0"/>
  <path d="m579.99 386.86c0 3.2969-4.9492 3.2969-4.9492 0 0-3.3008 4.9492-3.3008 4.9492 0"/>
  <path d="m555.23 372.7c0 3.3008-4.9492 3.3008-4.9492 0s4.9492-3.3008 4.9492 0"/>
  <path d="m555.23 400.99c0 3.3008-4.9492 3.3008-4.9492 0s4.9492-3.3008 4.9492 0"/>
  <path d="m530.49 386.86c0 3.3047-4.9609 3.3047-4.9609 0 0-3.3086 4.9609-3.3086 4.9609 0"/>
  <path d="m505.73 372.7c0 3.3008-4.9531 3.3008-4.9531 0s4.9531-3.3008 4.9531 0"/>
  <path d="m505.73 400.99c0 3.3008-4.9531 3.3008-4.9531 0s4.9531-3.3008 4.9531 0"/>
  <path d="m480.97 386.86c0 3.2969-4.9531 3.2969-4.9531 0 0-3.3008 4.9531-3.3008 4.9531 0"/>
  <path d="m456.21 400.99c0 3.3008-4.9531 3.3008-4.9531 0s4.9531-3.3008 4.9531 0"/>
  <use x="70" y="644" xlink:href="#w"/>
  <use x="90.550781" y="644" xlink:href="#d"/>
  <use x="104.359375" y="644" xlink:href="#a"/>
  <use x="123.347656" y="644" xlink:href="#c"/>
  <use x="142.242188" y="644" xlink:href="#b"/>
  <use x="155.628906" y="644" xlink:href="#a"/>
  <use x="174.617188" y="644" xlink:href="#g"/>
  <use x="204.410156" y="644" xlink:href="#f"/>
  <use x="224.453125" y="644" xlink:href="#k"/>
  <use x="252.453125" y="644" xlink:href="#j"/>
  <use x="275.882812" y="644" xlink:href="#c"/>
  <use x="294.78125" y="644" xlink:href="#v"/>
  <use x="304.375" y="644" xlink:href="#i"/>
  <use x="316.558594" y="644" xlink:href="#c"/>
  <use x="335.453125" y="644" xlink:href="#u"/>
  <use x="351.75" y="644" xlink:href="#a"/>
  <use x="370.742188" y="644" xlink:href="#f"/>
  <use x="390.78125" y="644" xlink:href="#d"/>
  <use x="404.59375" y="644" xlink:href="#c"/>
  <use x="433.234375" y="644" xlink:href="#t"/>
  <use x="453.398437" y="644" xlink:href="#b"/>
  <use x="466.785156" y="644" xlink:href="#h"/>
  <use x="486.71875" y="644" xlink:href="#g"/>
  <use x="506.761719" y="644" xlink:href="#s"/>
  <use x="516.359375" y="644" xlink:href="#e"/>
  <use x="70" y="672" xlink:href="#i"/>
  <use x="82.183594" y="672" xlink:href="#d"/>
  <use x="95.992188" y="672" xlink:href="#e"/>
  <use x="115.226562" y="672" xlink:href="#r"/>
  <use x="154.152344" y="672" xlink:href="#b"/>
  <use x="167.535156" y="672" xlink:href="#q"/>
  <use x="187.46875" y="672" xlink:href="#a"/>
  <use x="216.207031" y="672" xlink:href="#p"/>
  <use x="239.640625" y="672" xlink:href="#e"/>
  <use x="258.878906" y="672" xlink:href="#h"/>
  <use x="278.8125" y="672" xlink:href="#o"/>
  <use x="308.492188" y="672" xlink:href="#n"/>
  <use x="329.015625" y="672" xlink:href="#d"/>
  <use x="342.820312" y="672" xlink:href="#e"/>
  <use x="362.058594" y="672" xlink:href="#m"/>
  <use x="371.65625" y="672" xlink:href="#a"/>
  <use x="390.648438" y="672" xlink:href="#l"/>
  <use x="407.242188" y="672" xlink:href="#b"/>
 </g>
</svg>
